<?xml version="1.0" encoding="UTF-8"?>
<!-- Generator: Adobe Illustrator 21.0.0, SVG Export Plug-In . SVG Version: 6.00 Build 0)  -->
<svg version="1.1" id="Calque_1" xmlns="http://www.w3.org/2000/svg" xmlns:xlink="http://www.w3.org/1999/xlink" x="0px" y="0px" viewBox="0 0 125.5 75" style="enable-background:new 0 0 125.5 75;" xml:space="preserve">
<style type="text/css">
	.st0{fill:#E72183;}
	.st1{fill:none;}
	.st2{fill:#FFFFFF;}
	.st3{fill:url(#SVGID_1_);}
	.st4{fill:url(#SVGID_2_);}
	.st5{fill:url(#SVGID_3_);}
	.st6{fill:url(#SVGID_4_);}
	.st7{fill:url(#SVGID_5_);}
	.st8{fill:#91C021;}
	.st9{fill:url(#SVGID_6_);}
	.st10{fill:#3F4795;}
	.st11{fill:#C73B65;}
</style>
<path class="st1" d="M79.3,10.3l-3.7-4.5l0,0h0l0,0l0,0l-0.1-0.1c-0.1-0.1-0.3-0.3-0.5-0.5c-0.4-0.3-1.1-0.7-2.1-0.7  c-0.3,0-0.6,0-1,0.1l-28.7,6l-4.6,5c-0.1,0.2-0.2,0.3-0.2,0.5c0,0.2,0.1,0.4,0.2,0.5c0.1,0.1,0.3,0.2,0.5,0.2l10.2,0.5l28.6-6l0,0  l0,0c0,0,0.3-0.1,0.7-0.1c0.2,0,0.3,0,0.5,0.1c0.1,0,0.3,0.1,0.4,0.3c0.1-0.2,0.1-0.3,0.1-0.4C79.6,10.7,79.3,10.3,79.3,10.3  L79.3,10.3z"/>
<path class="st1" d="M85.1,23.6c0.1-0.2,0.2-0.3,0.2-0.5c0-0.2-0.1-0.4-0.2-0.5c-0.1-0.1-0.3-0.2-0.5-0.2l-10-0.6l-28.6,6  c0,0-0.3,0.1-0.7,0.1c-0.2,0-0.3,0-0.5-0.1c-0.1,0-0.3-0.1-0.4-0.3c-0.1,0.2-0.1,0.3-0.1,0.4c0,0.5,0.3,0.8,0.3,0.8l0,0l3.7,4.5l0,0  l0,0l0,0l0.1,0.1c0.1,0.1,0.3,0.3,0.5,0.5c0.4,0.3,1.1,0.7,2.1,0.7c0.3,0,0.6,0,1-0.1l28.7-6L85.1,23.6z"/>
<path class="st1" d="M51.8,5.3C51.8,5.3,51.8,5.2,51.8,5.3L51.8,5.3L51.8,5.3z"/>
<ellipse transform="matrix(0.832 -0.5547 0.5547 0.832 5.8324 29.6037)" class="st2" cx="51.8" cy="5.2" rx="0" ry="0"/>
<path class="st2" d="M51.8,5.2C51.8,5.2,51.8,5.2,51.8,5.2L51.8,5.2L51.8,5.2L51.8,5.2z"/>
<linearGradient id="SVGID_1_" gradientUnits="userSpaceOnUse" x1="363.6668" y1="229.4597" x2="392.8369" y2="229.4597" gradientTransform="matrix(1.1177 1.006452e-05 -6.258446e-06 1.1176 -376.9634 -251.8257)">
	<stop offset="0" style="stop-color:#3F4694;stop-opacity:0"/>
	<stop offset="0.2617" style="stop-color:#794686;stop-opacity:0.2617"/>
	<stop offset="0.508" style="stop-color:#9E4278;stop-opacity:0.508"/>
	<stop offset="0.7209" style="stop-color:#B63E6E;stop-opacity:0.7209"/>
	<stop offset="0.892" style="stop-color:#C33C68;stop-opacity:0.892"/>
	<stop offset="1" style="stop-color:#C73B65"/>
</linearGradient>
<path class="st3" d="M52.5,5.1c0-0.1-0.2-0.6-0.5-1.1c-0.2-0.2-0.4-0.4-0.8-0.6l6.4-1.3C58,2.1,58.3,2,58.6,2c1,0,1.6,0.3,2.1,0.7  c0.2,0.2,0.4,0.3,0.5,0.5l0.1,0.1l0,0l0.8-0.2c-0.2-0.2-0.6-0.7-1-1c-0.5-0.4-1.4-0.8-2.5-0.8c-0.3,0-0.7,0-1.1,0.1l-8.7,1.8  c0,0,0,0,0,0l0,0l-19.1,4c-0.2,0-0.3,0.2-0.3,0.4c0,0.2,0.2,0.3,0.4,0.3l0,0l19.1-4c0.3-0.1,0.6-0.1,0.9-0.1c0.9,0,1.3,0.3,1.6,0.7  c0.1,0.2,0.2,0.3,0.3,0.5c0,0.1,0,0.1,0.1,0.1l0,0.1c0,0,0,0,0,0.1L52.5,5.1z"/>
<linearGradient id="SVGID_2_" gradientUnits="userSpaceOnUse" x1="422.4604" y1="252.7175" x2="392.0209" y2="259.7893" gradientTransform="matrix(1.1177 1.006452e-05 -6.258446e-06 1.1176 -376.9634 -251.8257)">
	<stop offset="0" style="stop-color:#3F4694;stop-opacity:0"/>
	<stop offset="1" style="stop-color:#C73B65"/>
</linearGradient>
<path class="st4" d="M94.5,32.2c0-0.2-0.2-0.3-0.4-0.3l0,0L74.8,36c-0.3,0-0.5,0.1-0.7,0.1c-0.9,0-1.4-0.4-1.6-0.7  c-0.1-0.2-0.2-0.3-0.3-0.5c0-0.1,0-0.1-0.1-0.2l0,0l0,0l0-0.1l-0.7,0.1c0,0.1,0.2,0.7,0.5,1.1c0.2,0.2,0.4,0.5,0.8,0.6l-6.8,1.4  c-0.3,0.1-0.7,0.1-1,0.1c-1,0-1.6-0.3-2.1-0.7c-0.2-0.2-0.4-0.3-0.5-0.5l-0.2-0.2l-0.7,0.2c0,0,0,0,0,0.1c0,0,0.4,0.6,1,1  c0.5,0.4,1.4,0.8,2.5,0.8c0.3,0,0.7,0,1.1-0.1l8.9-1.9c0.1,0,0.1,0,0.2,0c0,0,0,0,0,0l19-4C94.4,32.5,94.5,32.3,94.5,32.2z"/>
<linearGradient id="SVGID_3_" gradientUnits="userSpaceOnUse" x1="388.4204" y1="252.9041" x2="405.4079" y2="230.2284" gradientTransform="matrix(1.1177 1.006452e-05 -6.258446e-06 1.1176 -376.9634 -251.8257)">
	<stop offset="0" style="stop-color:#3F4694"/>
	<stop offset="3.127664e-02" style="stop-color:#58468F"/>
	<stop offset="8.512700e-02" style="stop-color:#784686"/>
	<stop offset="0.1454" style="stop-color:#91447E"/>
	<stop offset="0.2118" style="stop-color:#A44276"/>
	<stop offset="0.2862" style="stop-color:#B23F70"/>
	<stop offset="0.3725" style="stop-color:#BC3D6B"/>
	<stop offset="0.4781" style="stop-color:#C23C68"/>
	<stop offset="0.6236" style="stop-color:#C63B66"/>
	<stop offset="1" style="stop-color:#C73B65"/>
</linearGradient>
<polygon class="st5" points="64.2,21.7 69.4,15.4 68.3,15.6 63.2,21.9 "/>
<linearGradient id="SVGID_4_" gradientUnits="userSpaceOnUse" x1="397.6562" y1="233.7507" x2="378.4396" y2="255.2734" gradientTransform="matrix(1.1177 1.006452e-05 -6.258446e-06 1.1176 -376.9634 -251.8257)">
	<stop offset="0" style="stop-color:#3F4694"/>
	<stop offset="3.127664e-02" style="stop-color:#58468F"/>
	<stop offset="8.512700e-02" style="stop-color:#784686"/>
	<stop offset="0.1454" style="stop-color:#91447E"/>
	<stop offset="0.2118" style="stop-color:#A44276"/>
	<stop offset="0.2862" style="stop-color:#B23F70"/>
	<stop offset="0.3725" style="stop-color:#BC3D6B"/>
	<stop offset="0.4781" style="stop-color:#C23C68"/>
	<stop offset="0.6236" style="stop-color:#C63B66"/>
	<stop offset="1" style="stop-color:#C73B65"/>
</linearGradient>
<polygon class="st6" points="55.6,23.5 60.7,17.2 60.7,17.2 59.6,17.4 54.5,23.7 "/>
<linearGradient id="SVGID_5_" gradientUnits="userSpaceOnUse" x1="371.8374" y1="242.1182" x2="410.963" y2="234.124" gradientTransform="matrix(1.1177 1.006452e-05 -6.258446e-06 1.1176 -376.9634 -251.8257)">
	<stop offset="0" style="stop-color:#3F4694"/>
	<stop offset="1" style="stop-color:#C73B65"/>
</linearGradient>
<path class="st7" d="M79.8,9.9L79.8,9.9l-3.7-4.5c-0.1-0.1-0.3-0.4-0.8-0.8c-0.5-0.4-1.4-0.8-2.5-0.8c-0.2,0-0.3,0-0.5,0l0,0  L42.9,10c0,0,0,0,0,0c0,0,0,0,0,0l0,0l-4.7,5.1c-0.3,0.3-0.4,0.6-0.4,1c0,0.4,0.1,0.7,0.4,1c0.2,0.3,0.6,0.4,1,0.5L49.2,18  c0,0,0,0,0,0c0,0,0,0,0,0l0,0L78,12l0,0l0,0c0.1,0,0.3-0.1,0.5-0.1c0,0,0,0,0,0c0.1,0,0.3,0,0.3,0.1l0,0l0,0c0,0.1-0.1,0.4-0.5,0.8  c0,0,0,0,0,0l-0.6,0.7l-5.1,6.3l1.1-0.2l5.1-6.3l0.7-0.9c0.3-0.3,0.4-0.6,0.5-0.9c0-0.2,0.1-0.3,0.1-0.5  C80.2,10.4,79.8,9.9,79.8,9.9z M79.5,11.6c-0.1-0.1-0.3-0.2-0.4-0.3c-0.2,0-0.3-0.1-0.5-0.1c-0.4,0-0.7,0.1-0.7,0.1l0,0l0,0l-28.6,6  l-10.2-0.5c-0.2,0-0.4-0.1-0.5-0.2c-0.1-0.1-0.2-0.3-0.2-0.5c0-0.2,0.1-0.3,0.2-0.5l4.6-5l28.7-6c0.3-0.1,0.7-0.1,1-0.1  c1,0,1.6,0.3,2.1,0.7c0.2,0.2,0.4,0.3,0.5,0.5l0.1,0.1l0,0l0,0h0l0,0l3.7,4.5l0,0c0,0,0.3,0.4,0.3,0.8  C79.5,11.3,79.5,11.4,79.5,11.6z"/>
<polygon class="st8" points="61.3,3.3 61.3,3.3 61.3,3.3 "/>
<linearGradient id="SVGID_6_" gradientUnits="userSpaceOnUse" x1="415.2502" y1="242.8066" x2="374.5873" y2="251.7232" gradientTransform="matrix(1.1177 1.006452e-05 -6.258446e-06 1.1176 -376.9634 -251.8257)">
	<stop offset="0" style="stop-color:#3F4694"/>
	<stop offset="1" style="stop-color:#C73B65"/>
</linearGradient>
<path class="st9" d="M77.5,29.9l3.4-0.7c0,0,0,0,0,0c0,0,0,0,0.1,0c0,0,0,0,0.1,0c0,0,0,0,0,0l0,0l4.6-5c0.3-0.3,0.4-0.6,0.4-1  c0-0.4-0.1-0.7-0.4-1c-0.2-0.3-0.6-0.4-1-0.5l-10-0.6L48,26.6l0,0l-2.2,0.5l0,0l0,0c-0.1,0-0.3,0.1-0.5,0.1c-0.2,0-0.3,0-0.4-0.1  l0,0l0,0c0-0.1,0.1-0.3,0.4-0.8l5.9-7.1l-1.1,0.2l-5.3,6.3c0,0,0,0,0,0c0,0,0,0,0,0.1l-0.6,0.7l0,0c-0.4,0.5-0.6,1-0.6,1.4  c0,0.7,0.4,1.2,0.4,1.3l0,0l3.7,4.5c0.1,0.1,0.3,0.4,0.8,0.8c0.5,0.4,1.4,0.8,2.5,0.8c0.3,0,0.7,0,1.1-0.1l2.9-0.6l0,0L77.5,29.9z   M51.9,34.6c-0.3,0.1-0.7,0.1-1,0.1c-1,0-1.6-0.3-2.1-0.7c-0.2-0.2-0.4-0.3-0.5-0.5l-0.1-0.1l0,0l0,0l0,0l-3.7-4.5l0,0  c0,0-0.3-0.4-0.3-0.8c0-0.1,0-0.3,0.1-0.4c0.1,0.1,0.3,0.2,0.4,0.3c0.2,0,0.3,0.1,0.5,0.1c0.4,0,0.7-0.1,0.7-0.1l28.6-6l10,0.6  c0.2,0,0.4,0.1,0.5,0.2c0.1,0.1,0.2,0.3,0.2,0.5c0,0.2-0.1,0.3-0.2,0.5l-4.5,4.9L51.9,34.6z"/>
<g>
	<path class="st10" d="M8.6,52.3H5v11.4c0,0.7,0.1,1.2,0.2,1.6c0.1,0.4,0.4,0.7,0.7,0.9c0.3,0.2,0.7,0.3,1.1,0.4   c0.4,0,0.9,0.1,1.5,0v1c-0.6,0-1.2,0-1.8,0c-0.6-0.1-1.1-0.2-1.5-0.5c-0.4-0.3-0.8-0.7-1.1-1.2c-0.3-0.5-0.4-1.3-0.3-2.2V52.3h-3   v-1h3v-5.1H5v5.1h3.6V52.3z"/>
	<path class="st10" d="M16.8,66.2L16.8,66.2l4.5-14.9h1.6l4.5,14.9h0.1L32,51.3h1.3l-5.2,16.3h-1.5l-4.5-14.8h-0.1l-4.5,14.8H16   l-5.2-16.3h1.3L16.8,66.2z"/>
	<path class="st10" d="M37.4,59.6v0.2c0,1,0.1,1.9,0.4,2.7c0.3,0.9,0.6,1.6,1.1,2.3s1.1,1.2,1.9,1.6c0.8,0.4,1.6,0.6,2.6,0.6   c1.6,0,2.9-0.4,3.9-1.3c1-0.9,1.6-2,2-3.6h1.2c-0.4,1.9-1.1,3.4-2.3,4.4c-1.2,1-2.8,1.5-4.8,1.5c-1.2,0-2.3-0.2-3.2-0.7   c-0.9-0.4-1.7-1-2.3-1.8c-0.6-0.8-1.1-1.6-1.3-2.7c-0.3-1-0.4-2.1-0.4-3.3c0-1.1,0.2-2.2,0.5-3.3c0.3-1,0.8-2,1.4-2.8   s1.4-1.4,2.3-1.9c0.9-0.5,2-0.7,3.3-0.7c1.1,0,2.2,0.2,3,0.6s1.6,1,2.2,1.7c0.6,0.7,1,1.6,1.3,2.5c0.3,1,0.5,2,0.5,3.1   c0,0.1,0,0.2,0,0.4s0,0.2,0,0.3H37.4z M49.4,58.6c0-0.9-0.2-1.7-0.4-2.5c-0.3-0.8-0.6-1.5-1.1-2.1c-0.5-0.6-1.1-1.1-1.8-1.4   c-0.7-0.4-1.5-0.5-2.4-0.5c-1,0-1.8,0.2-2.6,0.6c-0.7,0.4-1.4,0.9-1.9,1.5c-0.5,0.6-0.9,1.3-1.2,2.1c-0.3,0.8-0.4,1.6-0.5,2.5H49.4   z"/>
	<path class="st10" d="M66.2,64.4L66.2,64.4c-0.3,0.5-0.5,0.9-0.9,1.4c-0.4,0.4-0.8,0.8-1.3,1.2c-0.5,0.3-1.1,0.6-1.8,0.8   c-0.7,0.2-1.4,0.3-2.2,0.3c-1.7,0-3.1-0.4-4-1.1c-1-0.8-1.4-1.9-1.4-3.5c0-1,0.2-1.7,0.6-2.3c0.4-0.6,0.9-1.1,1.4-1.4   s1.2-0.6,1.9-0.7c0.7-0.1,1.4-0.3,2-0.3l1.9-0.2c0.9-0.1,1.6-0.2,2-0.3c0.5-0.1,0.9-0.3,1.1-0.6c0.3-0.2,0.4-0.6,0.5-0.9   c0.1-0.4,0.1-0.9,0.1-1.4c0-0.4-0.1-0.9-0.3-1.2c-0.2-0.4-0.4-0.7-0.8-1c-0.4-0.3-0.8-0.5-1.4-0.7c-0.6-0.2-1.3-0.3-2.1-0.3   c-1.5,0-2.6,0.4-3.5,1.1s-1.4,1.8-1.5,3.3h-1.2c0.1-1.8,0.7-3.2,1.7-4.1c1.1-0.9,2.6-1.4,4.6-1.4s3.4,0.4,4.3,1.2   c0.9,0.8,1.4,1.8,1.4,3v9.5c0,0.2,0,0.5,0,0.7c0,0.2,0,0.4,0.1,0.6c0.1,0.2,0.2,0.3,0.3,0.5c0.1,0.1,0.4,0.2,0.6,0.2   c0.2,0,0.5,0,0.9-0.1v1c-0.3,0.1-0.6,0.1-1,0.1c-0.5,0-0.9-0.1-1.2-0.2s-0.5-0.3-0.7-0.5c-0.1-0.2-0.2-0.5-0.3-0.7   c-0.1-0.3-0.1-0.6-0.1-0.9V64.4z M66.2,58.4c-0.3,0.4-0.7,0.6-1.4,0.7s-1.3,0.2-2,0.3l-2,0.2c-0.6,0.1-1.2,0.2-1.8,0.3   c-0.6,0.1-1.1,0.3-1.6,0.6c-0.5,0.3-0.9,0.7-1.2,1.1s-0.4,1.1-0.4,1.9c0,1.2,0.4,2.1,1.1,2.7c0.8,0.6,1.8,0.9,3.1,0.9   c1.4,0,2.5-0.2,3.3-0.7c0.8-0.5,1.4-1.1,1.8-1.7c0.4-0.6,0.7-1.3,0.8-1.9c0.1-0.6,0.2-1,0.2-1.2V58.4z"/>
	<path class="st10" d="M86.6,51.3v15.5c0,0.9-0.1,1.8-0.3,2.7c-0.2,0.9-0.6,1.6-1.1,2.3c-0.5,0.7-1.2,1.2-2.1,1.6   c-0.9,0.4-2.1,0.6-3.5,0.6c-0.9,0-1.7-0.1-2.4-0.3c-0.8-0.2-1.4-0.5-2-0.9c-0.6-0.4-1-0.9-1.4-1.6c-0.3-0.6-0.5-1.4-0.6-2.4h1.2   c0.1,0.7,0.2,1.3,0.5,1.8c0.3,0.5,0.7,0.9,1.2,1.3c0.5,0.3,1,0.6,1.6,0.7c0.6,0.1,1.2,0.2,1.9,0.2c1.1,0,2.1-0.2,2.8-0.5   s1.4-0.8,1.8-1.3c0.4-0.5,0.8-1.2,0.9-1.8c0.2-0.7,0.3-1.4,0.3-2.1v-3.7h-0.1c-0.6,1.2-1.3,2.1-2.3,2.8c-1,0.6-2.2,1-3.6,1   c-1.2,0-2.2-0.2-3.1-0.6c-0.9-0.4-1.6-1-2.2-1.7c-0.6-0.7-1-1.6-1.3-2.6c-0.3-1-0.4-2-0.4-3.2c0-1.1,0.2-2.1,0.5-3.1   c0.3-1,0.8-1.8,1.4-2.6c0.6-0.7,1.3-1.3,2.2-1.7c0.9-0.4,1.9-0.7,3-0.7c1.3,0,2.5,0.3,3.6,1c1.1,0.7,1.9,1.6,2.3,2.8h0.1v-3.4H86.6   z M79.5,52c-1,0-1.9,0.2-2.6,0.6s-1.3,0.9-1.8,1.6c-0.5,0.7-0.8,1.4-1.1,2.2c-0.2,0.8-0.4,1.7-0.4,2.6c0,1,0.1,1.9,0.4,2.7   c0.2,0.9,0.6,1.6,1.1,2.2c0.5,0.6,1.1,1.1,1.8,1.5c0.7,0.4,1.6,0.6,2.5,0.6c1,0,1.9-0.2,2.6-0.6c0.7-0.4,1.4-0.9,1.9-1.6   c0.5-0.7,0.9-1.4,1.1-2.2c0.2-0.8,0.4-1.7,0.4-2.7c0-0.9-0.1-1.8-0.4-2.6c-0.2-0.8-0.6-1.6-1.1-2.2c-0.5-0.6-1.1-1.2-1.9-1.5   C81.3,52.2,80.5,52,79.5,52z"/>
	<path class="st11" d="M93.9,64.4h1.6v3.3h-1.6V64.4z"/>
	<path class="st11" d="M103.1,48.2v-3.3h1.2v3.3H103.1z M103.1,67.6V51.3h1.2v16.3H103.1z"/>
	<path class="st11" d="M109.3,59.5c0-1.2,0.2-2.3,0.5-3.3c0.3-1,0.8-1.9,1.4-2.7c0.6-0.8,1.4-1.4,2.4-1.9c0.9-0.5,2-0.7,3.2-0.7   c1.2,0,2.3,0.2,3.2,0.7c0.9,0.5,1.7,1.1,2.4,1.9c0.6,0.8,1.1,1.7,1.4,2.7c0.3,1,0.5,2.1,0.5,3.3s-0.2,2.3-0.5,3.3   c-0.3,1-0.8,1.9-1.4,2.7c-0.6,0.8-1.4,1.4-2.4,1.8c-0.9,0.5-2,0.7-3.2,0.7c-1.2,0-2.3-0.2-3.2-0.7c-0.9-0.5-1.7-1.1-2.4-1.8   s-1.1-1.7-1.4-2.7C109.5,61.7,109.3,60.6,109.3,59.5z M110.5,59.5c0,1,0.1,1.9,0.4,2.8c0.3,0.9,0.7,1.7,1.2,2.4   c0.5,0.7,1.2,1.3,2,1.7c0.8,0.4,1.7,0.6,2.7,0.6s1.9-0.2,2.7-0.6s1.4-1,2-1.7c0.5-0.7,0.9-1.5,1.2-2.4s0.4-1.8,0.4-2.8   c0-1-0.1-1.9-0.4-2.8s-0.7-1.7-1.2-2.4c-0.5-0.7-1.2-1.3-2-1.7s-1.7-0.6-2.7-0.6s-1.9,0.2-2.7,0.6c-0.8,0.4-1.4,1-2,1.7   c-0.5,0.7-0.9,1.5-1.2,2.4C110.7,57.6,110.5,58.5,110.5,59.5z"/>
</g>
</svg>